<svg xmlns="http://www.w3.org/2000/svg" width="401" preserveAspectRatio="xMinYMin" height="221">
    <defs>
        <marker id="A" viewBox="0 0 10 10" refX="1" refY="5" markerWidth="5" markerHeight="5" orient="auto-start-reverse">
            <path d="M0 0l10 5-10 5z" stroke="none" class="B" />
        </marker>
        <style>
            @import url("https://fonts.googleapis.com/css?family=Noto+Sans:400");
        </style>
    </defs>
    <style>
        <![CDATA[
        .B {
            fill: #000
        }

        .C {
            fill: none
        }

        .D {
            stroke: #000
        }

        .E {
            font-weight: 400
        }

        .F {
            font-size: 12px
        }

        .G {
            dominant-baseline: middle
        }

        .H {
            font-family: Noto Sans
        }

        .I {
            marker-end: url(#A)
        }

        ]]>
    </style>

    <rect x=".5" y=".5" width="100" height="20" rx="4" class="C D" />
    <text x="-4.5" y="-4.5" class="B F G H">
        <tspan x="5.5" y="10" font-weight="normal">Topic search</tspan>
    </text>
    <rect x="60.575" y="35.575" width="114" height="35" rx="4" ry="4" stroke-width="1.15" class="C D" />
    <text x="-4.5" y="-2.5" class="B F G H">
        <tspan x="65.5" y="44.75" font-weight="normal">Select, scan, and</tspan>
        <tspan x="65.5" dy="14.5" font-weight="normal">select again</tspan>
    </text>
    <rect x="120.5" y="80.5" width="105" height="20" rx="4" ry="4" stroke-width="1" class="C D" />
    <text x="-4.5" y="-4.5" class="B F G H">
        <tspan x="125.5" y="90" font-weight="normal">Snowball search</tspan>
    </text>
    <rect x="180.5" y="120.5" width="100" height="20" rx="4" class="C D" />
    <text x="-4.5" y="-4.5" class="B F G H">
        <tspan x="185.5" y="130" font-weight="normal">Select</tspan>
    </text>
    <rect x="240.5" y="160.5" width="110" height="20" rx="4" ry="4" stroke-width="1.033" class="C D" />
    <text x="-4.5" y="-4.5" class="B F G H">
        <tspan x="245.5" y="170" font-weight="normal">Read and select</tspan>
    </text>
    <rect x="300.5" y="200.5" width="100" height="20" rx="4" class="C D" />
    <text x="-4.5" y="-4.5" class="B F G H">
        <tspan x="305.5" y="210" font-weight="normal">Reference</tspan>
    </text>
    <g class="I C D">
        <!-- Arrows -->
        <!-- Down -->
        <path d="m 25.5,25.5 q -10,25 25,25" />
        <path d="m 85.5,72.5 q -10,20 25,20" />
        <path d="m 145.5,105.5 q -10,25 25,25" />
        <path d="m 205.5,145.5 q -10,25 25,25" />
        <path d="m 265.5,185.5 q -10,25 25,25" />
        <!-- Up -->
        <path d="m 135.5,30.5 q 5,-20 -20,-20" style="stroke-dasharray:5,3;" />
        <path d="m 315.5,155.5 q 10,-65 -80,-65" style="stroke-dasharray:5, 3;" />
        <path d="m 315.5,155.5 q 35,-155 -200,-145" style="stroke-dasharray:5, 3;" />

    </g>
</svg>
